# xmcd
# 
# Track frame offsets:
#     150
#     17045
#     31005
#     47177
#     59370
#     74002
#     92612
#     108010
#     122015
#     136587
#     151890
#     172490
#     188725
#     206372
#     220635
#     251135
#     265720
#     278335
#     299175
#     314735
#     322520
# 
# Disc length: 4479
# 
# Revision: 3
# Processed by: cddbd v1.5.2PL0 Copyright (c) Steve Scherf et al.
# Submitted via: BonkEnc v1.0.15
# 
DISCID=2d117d15
DTITLE=MIŠO KOVAČ - Koncert
DYEAR=1988
DGENRE=Zabavni
TTITLE0=Nebu puštam bijelu pticu - Live
TTITLE1=Vrijeme plakanja - Live
TTITLE2=Drugi joj raspliće kosu - Live
TTITLE3=Ja odlazim - Live
TTITLE4=Odavno više ne plaćem zbog tebe - Live
TTITLE5=Ti si pjesma moje duše - Live
TTITLE6=Proplakat' će zora - Live
TTITLE7=Još i danas teku suze jedne žene - Live
TTITLE8=Noćas  ćemo zemlji k'o materi reći - Live
TTITLE9=Ja nemam više razloga da živim - Live
TTITLE10=Ostala si uvijek ista - Live
TTITLE11=Slušaj majko, moju pjesmu - Live
TTITLE12=Malo mi je jedan život s tobom - Live
TTITLE13=Dalmacija u mom oku - Live
TTITLE14=Ako me ostaviš - Live
TTITLE15=Vrelo mog života - Live
TTITLE16=Zali to cvijeće, suzama sreće - Live
TTITLE17=Sutra mi sude - Live
TTITLE18=Jedan dan života - Live
TTITLE19=Svi pjevaju, ja ne čujem - Live
TTITLE20=Poljubi zemlju - Live
EXTD=Koncert Miša Kovača održan je u dvorani "Cibona" 07. veljače 1988. Gledalaca 5000\nPrateća grupa bila je Grupa " Forum " iz Zadra
EXTT0=
EXTT1=
EXTT2=
EXTT3=
EXTT4=
EXTT5=
EXTT6=
EXTT7=
EXTT8=
EXTT9=
EXTT10=
EXTT11=
EXTT12=
EXTT13=
EXTT14=
EXTT15=
EXTT16=
EXTT17=
EXTT18=
EXTT19=
EXTT20=
PLAYORDER=
